/* XPM */
static char *a4e5148c1d0644b98599f96448f85c215igyXmOSJiuH5UBb[] = {
/* columns rows colors chars-per-pixel */
"100 100 63 1 ",
"  c #000000",
". c #06121F",
"X c #2A4563",
"o c #96866F",
"O c #6884A6",
"+ c #6F8DAB",
"@ c #708CAB",
"# c #7693B0",
"$ c #7B95B2",
"% c #7F98B4",
"& c #B5AB9C",
"* c #839CB6",
"= c #859EB9",
"- c #889FB9",
"; c #85A1B9",
": c #8CA3BC",
"> c #8FA8BD",
", c #91A6BE",
"< c #92A9BF",
"1 c #D4CABC",
"2 c #8FA5C0",
"3 c #93A7C0",
"4 c #95AAC2",
"5 c #9AAEC4",
"6 c #9DB1C6",
"7 c #9EB3C8",
"8 c #A1B3C7",
"9 c #A3B5CA",
"0 c #A9B7CC",
"q c #A6B9CC",
"w c #ABBBCE",
"e c #B0BDCF",
"r c #A6BAD0",
"t c #AEBED1",
"y c #B1BFD1",
"u c #ADC0CF",
"i c #B1C0CF",
"p c #AEC1D2",
"a c #B4C3D4",
"s c #B8C6D7",
"d c #B8C8D7",
"f c #B6C6D9",
"g c #B7C9DA",
"h c #BBCBDB",
"j c #BCCBDB",
"k c #B8CCDB",
"l c #B8CADC",
"z c #BACADC",
"x c #BCCBDD",
"c c #BBCEDE",
"v c #BECDDD",
"b c #BFCDE0",
"n c #BFCEE0",
"m c #BFD0E1",
"M c #C0CFDF",
"N c #EDDDC7",
"B c #C0CFE3",
"V c #C1D1E3",
"C c #C2D2E4",
"Z c #C3D3E4",
"A c #C3D3E5",
"S c #C4D4E5",
"D c white",
/* pixels */
"                                                                                                    ",
"                                                                                                    ",
"                                                                                                    ",
"                                                                                                    ",
"                                                                                                    ",
"                                                                                                    ",
"                                              NNNN                                                  ",
"                                              1NNo                                                  ",
"                                              11&o                                                  ",
"                                              11&o                                           ..     ",
"                                    ..  ...   11&o      ..                            ...   ...     ",
"       ....................................   11&o      ....                     ..............     ",
"DDDDDDD...................................DDDD11&oDDDDDD......................................DDDDDD",
"NDDDDDDDD.............................DDDDDDDD11&oDDDDDDDD.................................DDDDDDDDD",
"NNNNNNNDDD     ..................... DDDDDDDNNN1&NNDDDDDDDD    ..                     DDDDDDDDDDNNNN",
"   NNNNNNDDDDDDDDDDDDDDDDDNNNNNNNNNNNNNNNNNNNDN1&& NNNNNNDDDDDDDDDDDDDDDDDDDDDDDDDDDDDNNNNNNNNNNN   ",
"         NNNNNNNNNNNNNNNNNDDDDDDD DDDD      NNN1&&      NNNNNNNNNNNNNNNNNNNNNNNNNNNNNNN             ",
"                                              N1&&                                                  ",
"                                              N1&&                                                  ",
"                                              11&&                                                  ",
"                                              11&&                                                  ",
"                                              11&&                                                  ",
"                                              N1&&                                                  ",
"                                              N1&&                                                  ",
"                                              11&&                                                  ",
"                                              11&&                                            ..    ",
"   ....                                       11&&     ..                                     ..    ",
"  .......                                     11&&     ...                                  ....    ",
"  ...........                      ........   11&&     .......................   .......   ....     ",
"DDDD.......................................DDD11&&DDDDDD......................................DDDDDD",
"DDDDDDD...................................DDDDN1&&DDDDDDDDD..................................DDDDDDD",
"DNNNDDDDD    ..                           DDDNN1&NNNNNNNDDDD                               DDNNNNNNN",
" DDDNNNNNDDD                     DDDDDDNNNNNNDN1&&    DNNNNNNNNNNNNNNNNNNNNNNDDDDDDNNNNNNNNNNND     ",
"       DNNNNNDDDDDDDDDDDDDDDDDDDDDNNNNNNDDD   11&&         NNNNNNNNNNNNNNNNNNNNNNNNNNNNNNNNNN       ",
"           DNNNNNNNNNNNNNNNNNNNNNNN           11&&                                  NN              ",
"                                              11&&                                                  ",
"..............................................11&&..................................................",
"..............................................11&&..................................................",
"..............................................11&&..................................................",
"..............................................11&&..................................................",
"sssssssssssssssssssssssshhssssssssssssssssssss11&&ssssssssssssssssssssshhhhvmmnvxvvvvnvvnvvvzzzjjjss",
"XXXXXXXXXXXXXXXXXXXXXXXXXXXXXXXXXXXXXXXXXXXXXX11&&XXXXXXXXXXXXXXXXXXXXXXXXXXXXXXXXXXXXXXXXXXXXXXXXXX",
"sshhhhzzzzzzzzzzzzzzzzzjjvvvvvvvvvvvvvvvvvvvvv11&&vvvvBvvvvvvvvvvvvvvvvvvBVVVCCCVVVVVVVVVVVVBBBnvvvh",
"XXXXXXXXXXXXXXXXXXXXXXXXXXXXXXXXXXXXXXXXXXXXXX11&&XXXXXXXXXXXXXXXXXXXXXXXXXXXXXXXXXXXXXXXXXXXXXXXXXX",
"shxvvnnnnBBnnnBnnnnnnvnBnnnnvvvvvvvvnnnvvnvvnv11&&vBBnBBVBnvvvvvvvvvxxvnnvxvvVVVVVVVCCCSCCCVVvhhhhss",
"ashxxxvvvvvvxvvxvxxxxvvBBvvxxxvvvvvvvvVVVVVVBB11&&BBVCCCVVBvvhhhhhhhhhshhvnmvhvvvnnnnVVVVVmvchhhhsss",
"ssdhhhhxxvvvxxvjhhhhhhhhhzzzhhhhhhhhhvmVmmmmmm11&&mmVCVVVmchhhhhhhhhhhhhhsssxBVnvvnvnBBvvvvxhhhhhhhh",
"adhhhhhcchhhchhhhhhhhvcvvxzzxvxvvvvvnVCCCCCCCC11&&CCCCVVnnvvvhhhhhhssshhhhhhsassvmvvvvvvvvjsssssaass",
"aaaasshhhvvnvxvxjhhhhvvvvvvvvvxxvvvvvBVVVVVVVV11&&VVvvVVMvvvvhssaaaaaassssaasssasssshzhhzzzzhhsaaaaa",
"aaaaasaahvvvvnvvssashhvvnvnBnnvvnvVBVBVVVVVVVV11&&VVVVVBnnBvvvhsaaaaaassssaassaasssassssssssaaaaaaaa",
"aaaaaaahvvBVVVnnxhsashxxvvBvvvxvxvvvnBVVVVVVVV11&&vvvvvvBBvvhssasassssssaaaassssssaaaassaassaaaassaa",
"aaaaaaaagxvxhcxhsassshhhchhvchzhhhhhhhhhvvvvvv11&&vvvhhhhhhhhssssssssshsasaassssssaaaassaasssaassssa",
"aaaaaaaatdzaaadaytpsghkvhnnhchhhhhhhhhhhhhhhhh11&&hhhhhhhhhhsaaasssshsssaassssaasaaaaaasaassssssssaa",
"aaaaatyaahhdddatwttaassxVBvBvnhzsshhhhshhhhhhh11&&hhhhhsshhhhddssshhsshshsssaaaassaaaaaaaaasssssssaa",
"aaaaytq8watadatwpaatpshxvvVVVvhsaaaaaaaaasssss11&&sssaaaaassssasdsasshvvshsssaaaaaaaaaaassssssaassaa",
"aaayyw899wttrw489wqwyashvVVVvvvsaasaaaaaassssa11&oasssaaaasssssdsahsvvvvvhssaaaaaaaaaaasssssssaassaa",
"aaaaaw8456w9969555wtasssshvvMhaassasdaasaaasss11&ossssaaaassssssshvvsvvvsaaaassaasssasaaaasassaasssa",
"aaaaay94,554564548waashnnhsxhssaassasshssxshsa11&oaaaaaaaassssaahvvvjhxsssaasssaasaaaaaaaaaasaaasssa",
"aaaaaaw73,%O854*56waaaaasznvvsasssshhssshhagas11&oasaaasssssaassshjjhhjsaasassaaaaaaaaaaaaaasaaassaa",
"aaaaawq4#=$:55;3:8waaaaaaaassgvsaahxxxvvvvvvhh11&osaaassahssaadssshsssssdhsssaaaaaaaaaaaaaaaaaaaasaa",
"aaaaaq4*@+#-::65:<waaaaasaaaaassashhjvnvVVBBvz11&oaaasssxhshasasshhsssaassasaaaaaaaaaaaaaaasaasaaaaa",
"aaaaa654*#%*:<4699qwtaaaaaaaaaassasjvvvVVCCVVv11&osasshhsshhhsssaasshhsaasasaaaaaaaasssaaasaaasaaaaa",
"aaayww85:;:,445589wtayaaaaaaasassassjvvnnVVVvz11&ossshdsvvBvxhssaassssaaaaaaaassaaaaaadaasassaaasaaa",
"aaywqww8666888qwqqwwtaaaaaaaaaaaaszhhhvzhzvnxs11&osaasajVVnBvdaaassssaaaaaaasaaaaaapaaassaassssasaaa",
"aatqq999q009wwpawwewayaaaaaaaaaaaaashcvBvnvvss11&oaasshvBVVBzsaaaaaaaaaaaaaapaapuwpaaaasasassaasasss",
"aatw85569wwwyyaaaeaaaaaaasaaaaaaaasaasssvvxVvv11&ossssshvVvzsaaaaaaaaaaaaaaaaauuwtwwaaaaaaassaaaaasa",
"aaa99:;59waaaaaaaaaaaaaaaaaaaaaasassasssssBvvc11&oashgssvvhaassaaaaaaaaaaaayattttwtpywasaaaaasaaaaas",
"aaat6::58taaaaaaaaaaaaaaaaaaaasasssssssssVBvVVooooasaaszvzdsssaasaaaaasaaaaaatwwttwwaaaaaaaasasaaaaa",
"aaaw9*65waaaaaiaaaaaaaasaaasaaaasassssshnvvVVmhxsaaaaasaaaszhsaaasaaaaaaaaaaatwttwwaaaaaaaasaaaaaaaa",
"aaaaw956qwyaaaiyeaaaaaaaaaasaaaasaaasshvsvVVvxvsaaaaassaaaaassaaassssaaaaaaaaapywwaasaaaaasaaaaaaaaa",
"aaaaw9565qwaaaaaaaaaaaaaaaasssasaasaachajVVvvnsaaaaaassssasaaaaaasaaaaaaaaaaaaapaaaaaaassaasaaaaaaaa",
"taaatq9:,6waaaayaaaaaaaaaaassaaassashaanVnvMnhsassaaaaaaaaaaaaaaaasaasaaaasaaatwwwyaaasaaaasaaaasaaa",
"atttr9,%=49waaaaaaaaaaasaassaassashsysxnvzBvcssssaaaaaasaaaaaaaasaasaasaaaaaawww6qtawwyaaaasaaaaaaaa",
"pqytt;;#*,8waaaaaaaaaassaasassaahsashvnvvnhssassaaaaaaaaaaaaaaaaaaasaaaaaaaasaw569twwwtttwpaaaaaaaaa",
"atat6:=:-49taaaaaaaaaaasaaassshhaaxhVjMnVhsaassaaaaayaaaaattwaaaaaaaataasaaaaw89qwwqwwwqwwtaaaaaaaaa",
"aapp8753:6wyaaayaaaaaaaassaahhsasvvVxBvvssashssaaaaaaaawtwww0qwwwwaataaaaaaatww99677w9798qwwttwaaaaa",
"aaaw:33:59waaaaaaaaaaaaaasdzssjhnnnvvvjsasssssasaaaaaaayw08588qwqtwwtuaasaata9q6656q55q7w9qwwwppaaaa",
"ayq6;*;469waaaaaaaaaaaaahhsssjvBvBvncssaasdasaaaaaaaaaayw855<:;57wtatwpaaaaapt97985:498w8twwwwttaaaa",
"aaw9::5990wwaaaaaassaahhssshvnnvBnnsdaaassaaaaaasaaaaaaew85<--:=<qpttaaaaaaaat9tw6699wqwawwaaywpaaaa",
"atww8qwwwwwyaaaaaaaaszsajhvBvnnvvhsaasssaaasadaaaaaaaaywq8554$**:qwpwttataaaittattww6qww68apawtwaaaa",
"atww69wtyyeaaaaaaahhaaszvBBBvvvjssaahssaaaadadssssaaaaatw957#%5$56t9wwtaaasaataatawqww86wawaaawtaaaa",
"awqq69wwpaaaaaaasssassvBnnBvvvhsaasssssssdzzhnxhdaaaaaytww59768656w9twaaassaattaaww88,9yaaaaaapaasaa",
"awww69wtyayaaaasaahhvvcvnnxhssaashsassshgdzdznmvnssaaaatttwaww8899wptaaasaaaaaaaa994;5qwaaaaaaaaaass",
"awww6wwpaayayytyydxvvnzxnhssasadsaaashhgzzznVCVCCVxsaaattpaaayt658wwaaaaaaytwwwwaw95<6ttaaaauaaassaa",
"aq9959wppayytwwtshvvzvgddaassssaaashssshvnVCCSSSSCnvhhddasaaatw>:qqtqtwaw99wq9ww6:37q9wwaatwaasaaaai",
"aq996qwyapywwwwwwggghcfattssssasshaaasvBBCCCSCSSSCVcgaaawwaaaww6635995qw78qrwt9t555wwwaaataaaaaaaaaa",
"awww8wtyyawwwqtq96fzzxtatyasdxxhvashhvvBnCCCCCCCCCVvzcgzszshawq7w8q99956:,9wwaaw78ww7taapassaaaaaptw",
"aatwwwttyeatww968qgdzvczfwtahnvvjnvxxvmVnvvVVVVCCvvBmnzcvhzsattw5886696<:5:8wwqwqwq6aaaaasaassaatww0",
"aawww99twytty8q4444tnmcppwwavvvVCVVBvxzvnnVnnxnBnnVVvVVVnzdgtww6qw8865;*:3::9tw9858taaaaaassaaatwwq9",
"aayat8w8wtyaww9685:7zzdapttaavVCCCVVvhzssaszvBCnxvnznzzdza75:56677776:4<>669wq998taaaaaaaaasaawwtw85",
"pataawwwqwtwtttq596rfzptqwassxCVCVvnaaaashhsaaasvnxhhd9r8966,283::633=;42<497wrtaaaaaaaaaaaaatwaw965",
"sadapppawppaaatwwr67rdpaayashcvVVVzvaaaaaaaaaaaaasdzczap94**:797qq9968w68qwqwttaaaaaayaaaatw8wq99445",
"aaaaaaaaapwpaaatwtqfzdagfaadddhmVvahscsaaaaaaaaaaaatttttq9993**49wwtyywatttuataasasasat98ww86585<9$+",
"aaaaaaaaaaaaaaatttsaazpdhsasssccvhnVvhsaeaaaaaaaaaaayww855443,59wwyaaaaaaaaaaataaaaawwqww65:49549%-4",
"aaaaasaaaaaaaasaaadvvsvzddasssaasnSVBvvayyaaaaaaaaaaaptt98989669wwwwwaytyaywttttatwttw5=43699669qw9t",
"aaaaaaaaaaaaaaaaagnvVBnVzgsasaasxVCCVvhayyyaaaiaaaaaaaaapwwwttwwttwwwwttaawwwtwwwtttw759954545wttttq",
"aaaaaaaaaaaaaaaaahvVCCVBvvhsaaassjVVvaaaaaaaaaaaaaaaaaaaaaaaaaaaaaaaaaattwwwwwwttwtttwwwqqqqwwtaaatw",
"asaaaaaaaaaassaaaavVBVVBvsasaashaszBaaaaaaaaaaaaaaaaaaaaaaaaaaaaaaaaaaaatw695889977909998867q9wtt98w",
"aaaaaaaaaasaaaaaashnBvvhsssaaaashvvxassaaaasaaaasaaaaaaaaaaassaaaaaassaaww93::4,53448555868998qwwwwq",
"yaassaasasssaaawagchvvzsaasaayaayyashvhaaaaaaaaaaaaaaaaassaaaaaaaaaaayyw95459654556789989989wwwwq9wq"
};
