/* XPM */
static char *wall[] = {
/* columns rows colors chars-per-pixel */
"100 100 82 1 ",
"  c #000724",
". c #040B27",
"X c #060D28",
"o c #080F2A",
"O c #0D132D",
"+ c #0F1630",
"@ c #101731",
"# c #151B34",
"$ c #191F37",
"% c #191F38",
"& c #1D233C",
"* c #20263F",
"= c #23283F",
"- c #252A40",
"; c #292E44",
": c #2C3146",
"> c #2F3448",
", c #30354A",
"< c #353A4D",
"1 c #383C4F",
"2 c #393E51",
"3 c #3F4356",
"4 c #424657",
"5 c #434758",
"6 c #464A5B",
"7 c #494D5D",
"8 c #4D5162",
"9 c #525665",
"0 c #545867",
"q c #535768",
"w c #555969",
"e c #5A5D6D",
"r c #5D606F",
"t c #5D6170",
"y c #616574",
"u c #646877",
"i c #676B79",
"p c #6B6E7C",
"a c #6D717F",
"s c #6F7280",
"d c #727683",
"f c #757886",
"g c #787A85",
"h c #777A88",
"j c #7A7D8A",
"k c #7D808E",
"l c #7F8290",
"z c #80828E",
"x c #828593",
"c c #878A97",
"v c #898B96",
"b c #8B8E98",
"n c #8F919B",
"m c #92959E",
"M c #9496A0",
"N c #9799A1",
"B c #9B9DA5",
"V c #9EA0A7",
"C c #A2A3AA",
"Z c #ABACB2",
"A c #B3B4BA",
"S c #B7B8BD",
"D c #B9BABF",
"F c #BCBDC1",
"G c #BFC0C3",
"H c #C3C3C7",
"J c #C5C5C9",
"K c #CACACE",
"L c #CCCDD1",
"P c #CFD0D3",
"I c #D1D2D5",
"U c #D5D6D9",
"Y c #D7D8DB",
"T c #DBDBDD",
"R c #DEDEE1",
"E c #E3E3E5",
"W c #E6E6E9",
"Q c #E7E8EB",
"! c #EAEBEC",
"~ c #EFEFF0",
"^ c #F3F3F3",
"/ c #FEFEFD",
/* pixels */
"....................................................................................................",
"....................................................................o..........................o....",
"....................................................................................................",
"................................................................................o...................",
"....................................................................................................",
"....................o.....o..............................o..........................................",
"....................................................................................................",
"....................................o....o...........o..............................................",
"....................................................................................................",
"...............o........................o...........................................................",
"...................................................................o................................",
"....................................................................................................",
"....................................................o...............................................",
"..o............................................................................o....................",
".................................................................................o..................",
"..............................................................................................o.....",
".............................................X....................................................o.",
".......................................................................................o............",
"....................................................................................................",
".......................o............X................................o..............................",
".........................O..........................................................................",
"..................................................o.................................................",
"....................................................................................................",
".........................................X..................o.......................................",
".....................o...........X..................................................................",
"............o...............................................................................o.......",
"....................................................................................................",
".............................................X......................................................",
"......................................X............................................o................",
"....................................................................................................",
"..o....................................................o........o...................................",
"..........................................X.........................................................",
"....................................................................................................",
"....................................................................................................",
".................................X...............................  ......    .......................",
"................................................................;jxyO...oecj< ......................",
"................................................................7^/J@.. OZ//y ......................",
"................................................................7^/H#...OZ//y ......................",
".o............................................................. 7^/H#...OZ/^y ............o.........",
".......................................X....................... 7^/H@...OZ//y ......................",
"............................. . ................       .........7^/H#...OZ//y ......................",
"..................+&&$......#&&&X.....O&&#.....O:yfxxfq&........7^/H@...OZ/^y ..................X...",
"..................2IWA#....OVQWL;.....sWWd....qZE/////^LyO..... 7^/H#...OZ//y .........o............",
"..................&P/W> ...&Y///t....OA/^w ..&U//^^Q~///^g..... 7^/H#...OZ/^y ......................",
"..................OB//y .. 8^///n... *T/R-.. &UImy7<5pF//W3.... 7^/H#...OZ//y ......................",
".................. p//M... j/^W/J#.. q^/AO...@q-.     $B//Mo....7^/H#...OZ/^y ......................",
"...................2!/K$..@A/IV/Q< . k//j .... ....... ,E/I%... 7^/H#...OZ//y ......................",
"...................#K/!2 .-R/By^/i .@F/^8 .......      +F/Q< .. 7^/H@...OZ/^y ......................",
"....................m//p  w^/p=T/Bo ;R/U& .....O;efjxxxcT/^9 ...7^/H# ..OZ//y ......................",
"................... y//CO c/Q<OA/L$ e//ZO.....;mT//////////e .. 7^/H#...OZ/^y ........X............X",
"....................,W/I&@F/K# j/!3.v//f ... :J////^!WWW///t .. 7^/H# ..oZ//y ......................",
"....................#H/^4;E/m. 9^/s@H/!5....ON//Wmy81-&;D/^r ...7^/H#...OZ//y ................X.....",
"..o..................b//de^/y .&T/C2E/I%... =T/!w.  .. @H//r .. 7^/H#...OZ/^u ............X.........",
".................... e//Zm/W>..OZ/Ik//VO... 6^/K#......=T/^t ...7^/H# ..OZ//y ......................",
".....................;E/QT/H@.. f/!K//p ... 9^/J@......d///r .. 7^/H#...OZ//y ......................",
"........o............@F////v... 6~///!2 ....,W/Q7.   .8R//^r .. 7^/H# ..OZ/^y .....X................",
"......................x///^e ...&I///L#.....@S//Yg5<9mW/^/^r ...6^/H#...OZ//y....................X..",
"..................... w^//E- ...OC///N.......8W///~!^//AH//t .. 6~/H#...OC//y..............X........",
"......................&JW!Z+.... uEWEt........0K^////Wm-BQRq .. 4RQZ@...ONQRq.......................",
"...o...................&**#......O&*&O.........&tjxkp<..$*&+....O&*%.....%*&+........X..............",
".......................... ....... ..............     ..................... ........................",
"....................................................................................................",
"............................................................................................X.......",
"................................................................................X...................",
"................................X................X..................................................",
".................o...........................................................................X......",
"..............................................................X................X.................X..",
".............................o......................................................................",
"......................................................................X.............................",
".....................................................X.........X....................................",
".....................................................................................X...X..........",
"........................................X..................................X........................",
"o...............................................X...................X...............................",
".........................................X..........................................................",
".....................................X.................................................X............",
"................................................................X...................................",
".............o....................................................................................X.",
"....................................................................................................",
"............................o.......X.........X.......X.........................X.............X.....",
"..........................................................X.................X.......................",
"................o............o...X..........................X..................................X....",
".............................................................................X......................",
"....o...............................................................................................",
"....................................................X............X..................................",
"....................................................................................................",
"............o.......................................................................................",
".........................................................X.........................................X",
".......................................X.X............................X................X............",
"......................................................................................X.X...........",
"........................................X........X........................X.........................",
".............................................................X.........X............................",
"....................................................................................................",
"...............................o.......................X............................................",
"..................o..........................X......................................................",
"....o...............................................................................................",
"................................X.............................................X...............X.....",
"...........................................................o......X.........X.......................",
"...................................................................................................X",
"......................................o................................................X............",
"...................o................................................................................"
};
