/* XPM */
static char *ground[] = {
/* columns rows colors chars-per-pixel */
"147 100 50 1 ",
"  c #7D7F86",
". c #7E8087",
"X c #7F8188",
"o c #808289",
"O c #86888F",
"+ c #878990",
"@ c #8B8D93",
"# c #8F9097",
"$ c #909197",
"% c #93949A",
"& c #97989E",
"* c #98999F",
"= c #9B9CA1",
"- c #9FA0A5",
"; c #A1A2A7",
": c #A4A5AA",
"> c #A7A8AD",
", c #A9AAAE",
"< c #ADAEB2",
"1 c #AFB0B4",
"2 c #B1B2B6",
"3 c #B4B5B9",
"4 c #B7B8BC",
"5 c #B9BABE",
"6 c #BDBEC1",
"7 c #BFC0C3",
"8 c #C2C2C5",
"9 c #C6C6C9",
"0 c #C7C8CB",
"q c #CACBCD",
"w c #CECFD1",
"e c #CFD0D2",
"r c #D2D2D4",
"t c #D6D7D8",
"y c #D7D8D9",
"u c #DBDBDD",
"i c #DEDFE0",
"p c #DFE0E1",
"a c #E4E4E5",
"s c #E7E7E8",
"d c #E8E7E8",
"f c #E7E8E8",
"g c #ECECED",
"h c #EFEFF0",
"j c #F0EFF0",
"k c #F4F4F4",
"l c #F7F8F7",
"z c #F8F8F7",
"x c #F7F8F8",
"c c #F9F9F9",
/* pixels */
"oooooXooXoooooXooooooooooooooooooooooooooooooooooooooooooooooooooooooooooooooooooooooooooooXooooXoooooooooooooooooooooooooXoooooooooooooooooooooooo",
"oooooooooooooooooooooXoooooXoooooooooooooooooooooooooooooooooooooooooooooooooo ooooooXoooooooooooooooooooooooooooooooooooooooooooooXooooXoooooooooo",
"ooooooooooooooooooooooooooooooooooooooooooooooooooooooooooooooooooooooooooooooooooooooooooooooooooooooooooXooooooooXooooooooooooooooooooooooooooooo",
"ooooooooooooooooooooooooooooooooooooooo oooooooooooooooo oooooooooooooooooooooooooooooooooooooooooooooooooooXoooooooooooooooooooooooooooooooooooooo",
"XooooooooooooooooXooooooooooXoooooooooooooooooooooooooooooooooooooooooooooooooooooooooooooooooooooooooooooooooooooXoooooooooooooXooooooXooooooooooo",
"oooooooXoooooooooooooooooooooooooooooooooooooooooooooooooooooooooooooooooooooooooooXXoooooooooXooooooooooooooooooooooooooooooXooooooooooooooooooooX",
"oooooooooXoooooXoooooooooooXooooooooooooooooooooooooooooooooooooooooooooooooooooooooooooooooooooooooooooooooooooooooooooooooooooooooooooooooooooooo",
"ooooooooooooooooooooXooooooooooooooooooooooooooooooo oooooooooooooooooooooooooooooooooooooXooooooooXoooooooooXooooooooooooooooooooooooooooooooooooo",
"oooooooooooooooooXoooooXoooooooooooooooooooooooooooooooooooooooooooooooooooooo oooooooooooooooooooXooooooooooXooooooooooooooooooooooooooooooooooooo",
"ooooooooooooooooooooooooooooooooooooooooooooooooooooooooooooooooooooooooooooooooooooooooXooooXoooooooooXooooooooooXooooXooooXoooooooooooooooooooooo",
"XoooooooooXooooooooooooooXoooooooooooooooooooooooooooooooooooooooooooooooooooooooooooXooooooooooooooooooooooooooooooooooooooooooooooooooooooooooooo",
"ooooXooooooooooooooooooooooooooXooooooooooooooooooooooooooooooooooooooo oooooooooooooooooooooooooooooooooooooooooooooooooooooooooooooooooooXooooXoo",
"oooooXoooooooooXoooooooooooooooooooooooooooooooooooooooooooooooooooooooooooooooooooooooooooooooooooooooooooooooooooooooooooooooooXooooooooXoooooooo",
"oooooooooooXooooooooooooooooooooooooooo ooooooooooooooo oooooooooooooooooooooooooooooooooooooooooooooooooXooooooooooooooooooooooooooooXoooooooXoooo",
"oooooooooooooooooooooooXooooXoooooooooooooooo oooooooooooooooooooooooooooooooooooooooooooooooooooooooooXoooooXooooooooooXoooooXoooooooooooooooooooo",
"oooooooooooooooooXoooooooooooooooooooooooooooooooooooooooooooo oooooooooooooooooooooooooooooooooooooooooooooooooooooooooooooooooooooooooooooooooooo",
"oooooooooooooooooooooooooooooooooooooooooooooooooooXoooooooooooooooo ooooooooooooooooooooooooooooooooooooooooooooooooXooooXoooooooooooooooooooooooo",
"oooooooooooooooooooooooooooooooooooooooooooooooooooooooooooooooooooooooooooooooooooooooooooooooooooXooooooooooooooooooooooooooooooooooooooooooooooo",
"oooXoooooooooooooooooXooooooXoooooooooooooooooooooooooooooooooooooooooooooooooooooooooooooooooooooooooooooooooooooooooooooooooooooooooXoooooooooXoo",
"oooooooXoooooooooooooooooooXoooooooooooooo ooooooooooooooooooooooooooooooo ooooooooo oooooooooooooooooXoooooooooooooooooooooooooXooooooooXooooooooo",
"ooooooooooooooooXoooooooooooooooooooooooooooooooooooooXooooooooooooooooooooooooooooooooooooooooooooooooooooooooXoooooooooooXooooooooooooooooXoooooo",
"ooXoooooooooooooooooXooooooooooooooooooooooooooooooooooooooooooooooooooooooooooooooooooooooooo ooooooooooooooooooooooooooooooXooooooooooooooooooooo",
"ooooooooooooooooooooooooooXooooooooooooooooooooooXooooooooooooooooooooooooooooooooooooooooooooooooXooooooXooooooXooooXoooooooooooooXooooooooooooooo",
"oooooooooXooooooooooooooooooooooooooo ooooooooooooooooooooooooo ooooooooooooooooooooooooooooooooooooooooooooooooooooooooooooooooooooooooooooooooooo",
"ooooooooooooooooooooooooooooooooooooooooooooooo oooooo oooooooooooooooooooooooooooooooooooooooooooooooooooooooooooooooooooooooooooooooXoXoooooooooo",
"oooooooooooXooooooooooooooooooooooooooooooooooooooooooooooooooooooooooooooooooooooooooooooooooooooooooooooooooooooooXoooooooooooooooooooooooooXoooo",
"oooXXooooooooooooooooooooooooooXoooooooooooooooooooooooooooooooooooooooooooooooooooooooooooooooooooXoooooooooooooooooooooooooXoooooooooooooooooooXo",
"ooooooooooooooooooooooooXoooooooooooooooooooooooooooooooooooooooooooooooooooooooooooooooooo ooooooooooooooooooooXoooooooooXoooooooooooooooooooooooo",
"ooooooooooXooooooooXooooooooooooooooooooooooooooooooooooooooooooooooooooooooooooooooooooooooooooooooooooooooooooooooooooooooooooooooooooooooooooooo",
"oooooooooooooXoooooooooooooooooooooooooooooooooooooooooooooooooooooooooooooooooooooooooooooooooooooXoooooooooooooooooXoooooXooooooooooooooooooooooo",
"ooXooooooooooooooooooooooooooooooo oooooooooooooooooooooooooooooooooooooooooooooooooooooooooooooooooooooXooooooXoooooooooooooooooooXooooXoooooooooo",
"oooooooooooooooooooooooooooooXoooooooooooooooooooooooooooooooooooooooo oooooo ooooooooooooooooooooooooooooooooooooooooooooooooooooooooooooooooXoooo",
"oooXooooXoooooXoooooooooooooooooooooooooooooooooooooooooooooooooooooooooooooooooooooooooooooooooooooooooooooooooooooooooooooooooooooooooooooooooooo",
"oooooooooooooooooooooooooooooooooooooooooooooooooooooooooooooooooooooooo.oooooooooooooooooooooooooooooooooooooooooooooo.ooooooooooooooooooooooooooo",
"oooooooooooooooooo ooooooooooooooooooooooooooooooooooooo ooooooooooooooooooooooooooooooooooXoooooXooooooooooooo.ooooooooooooooooooooooooooooooooooo",
"oooooooooooooooooooooooooooooooooooooooooooooo ooooooooooooooooooooooo.ooooooooooooooooooooooooXoooooXooooooooooooooooooooooooooooooooooooooXoooooo",
"oooooooooooooooooooooooooooooooooo oooooooooooooooooooooooooooooooooooooooooooooooooXooooooooooooooooooooooooooooooooooooooooo.o+$%@Ooooooooooooooo",
"oooooooXXoooooXoooooooooooooo oooooooooooooooooooooooooooooooooooooooooooooooooooooooooooooXooooooooooooooooooooooooooooooooooo%6ip7&oooooooooooooo",
"oooooooooooooooooooooooooooooooooooooooooooooooooooooooooooooooooo.oooooooooooooooooooooooooooooooooooooooooooooooooooooooooooo%0hjq*oooooooooooooo",
"ooXoooooooooooooooooooooooooooooooooooooooooooooooo ooooooooooooooooooooooooo.ooooooooooooooooooooooXoooo.ooooooooooooooooooooo%9hkq*oooooooooooooo",
"ooooooooooXooXXooooooo oooooooooXXXXXXXXooooooooooooooooooooooooooooooooooooooooooXXoooooooooooooXooXXXoooooooooooooooooooooo..%0jkq*ooooooooo.oooo",
"ooooooooooo+##%$#+ooooOoooooooooXOXXXX@#$$@OoooooO@#$$#@OoooooooooooooooooooooooooXXooooXXoooooXoO@#%$#@+oooooooooooooO+@$$#@Oo%0gjq*oooooooooooooo",
"oooXoooXO@>7tpsaiq2%=,62=Ooooo@,66-%=6eisaq;@ O$,6riaaai01%OooooooO*35,*O oooooo#:55:@XXXX+-56>*$<9uaapt8>@ooooooooo+=3quaair4;-qgkq*oooooooooooooo",
"ooooooXO=9akkhgdgjgrqijs6#oooo=whdw0ihhhghr:++:rgkkhgdgjkji3$oooooO,azu,+ oooooo=whg9=XoXX$8gkr8wghgffklla7=ooooooo#2ukkkjgggkuqrgjq-oooooooooooooo",
"ooooooo:whxs0<===2qajjxd6# ooo=ehxhgi6,==:=$#1ikka7,===6ijxd6% oooO1azu,O oooooo*qjh0*.Xoo%7dchga91=*=1rfxf4$ooooo%4azkt4;*=,8ajjlhq*ooooooooooooXo",
"ooXooo%9hki2@ooooo$6ixca6@ ooo=qhcke,+XX XX+>tkkr:@o oo+=0jki6@oooo<azu,+ oooooo*qjh0&XXXo$7dckt<@ooooO*0hlr>Oooo@2azf0*OoooO@1tkchq*oooooooooooooo",
"oooo +,uxg6#oXooooo$6hcd6@oooo=whci<@XXoXX %9gxi1Oooooooo:wkkr=+ooO1azu1O oooooo*qhh0&XXXX$7gcf5@XXoooo+2ucp2OooO*8kle=O.ooooo@1fcje-oooooooooooooo",
"oooo @4axi>OoooooooO<ixd6# oXX=whhw=ooXXXX =rkh9= ooooooo$3gxi,@ oO1azu,+ oooooo*qhh0*XXXX#7dkt,XXXooooo:tlf4@o.O>tzg7@o.oooooo-ykjq*.ooooooooooooo",
"oooo $8gkt;ooooooooo,tks6#XXoX=wkh8= oooo +=ich6$ Xoooooo+<aca3@ XO1aji<O oooXXo*qhh0*.XXo#8hke-oooooooo:elf6@oXO1uza3Ooooooooo*qkhq*.oooooooooooXo",
"oooo %6gjt;ooooooooo>txd6@XXoo=ehh8%  oooo@:icd6= Xooooo +>axs3@ XO<axi,+ oooooo*qhh0*.XXo#8dke-oooooooo;elf6#oXO2pzi2+oooooooo%qgkq=Xooooooooooooo",
"oooo @4sxi,ooooooXoO<ixs6#XXoo=wkh6%  ooo  =tkh6% XooooX @1gxi1@Xoo1axi<O ooooXo=ekh0&.XXX#7gke-oXoooooo:ekf5OXXO,uzs4Ooooooooo*rkkw=.ooooooooooooo",
"oooX O<uxh6$oooooXo$6jcs6@XXoo=ehh9= oooo o=whkr=oooooo  =8jxi;+Xoo<ixi1+ oooooo-tkh0*.XoX#8dkw-oooooooo:elf5#oXO;wkg8$Ooooooo+>uxgq=.oXooooooooooo",
"ooooXo%9jxi3@oXXXo#5iccs6#XXXX=ejg6= oooooo@6axg6%o o   +2ikg9%oXXX:tjg7$Xooooo%4gzg0&XoXo#8gke:oXooooXo:rlf6@XXo$5gzu2@..oooO*8gckq=oooooooooooooo",
"ooooooo:wjksq1=&-2qajjxs6@XXXX=ejh8$ ooooo O=8hka9=++O+=6ikkr>OooXX=8jxa3%Ooo@-9alch0&XXXo@8gke-oXooooXo:elf5@XXoo;rjzu3%OOO@;0glcgq=oooooooooooooo",
"oooooooO-0skkjgdgggrwuks6@XoXo=ekh6= ooooooo =9gxkar88eijxgr:+ooooX+-tjxhy089raspakh0*XXoo#7dke-oXooooXo:ekf6#oooo+-rjzjiq80tafaakhq=Xooooooooooooo",
"ooooooooo@:7tadaiq2=<uka3+Xooo%8ii6= oooooo   #1eahkxkkkdr6%Oo ooooXO=7ajjkxjgu3,8ii6%Xooo@5ia7=oooooXXX-9ay2#oooooO*5ugklkkgi8,8ua7*XooooooooXoooo",
"ooooooooo o+@$%$#+O#5dku>OXoooo#%$#ooooooooooooo@=<6666<=$+ooooooooooo+=<4663:$OO####oXooXX####OooooooooO#%#Ooooooooo@%:2552>*@O@$$#OXooooooooooooo",
"oooXooooo@OoXXXXXo#<yxj9%oXooooo oooo oooooooooo oo oo   oooooooooooooooooooooooooXXXXoooXXooXXooooooooooo.XooooooooooooooOoooo.ooXoXXooooXoooooooo",
"oooooooo=983:&%=;3qskje>OoXXooXooooooooooooooooooo ooooooooooooooooooooooooooooooooXXooooooooooooooXooooooooooooooooooooooooooooooooXooooooooooXXoo",
"oooooooO>ujjggdgjjkjsq-OXoooooooooooooooooooooooooooooooooooooooooooooooooooooooooooooooooooooooooooXooooooooooooooXooooooooooooooooXXooooooooooooo",
"oooooooX@:6wyasaaue6;#OXXooXoooooooooooooooooooooooooooooooooooooooooooooooooooooooooooooooooooooooooooooooooXooooooooooooooooooooooooooooooooooooo",
"oooooooXooO+@@%%$#+Ooooooooooooooooooooooooooo oooooooooooooooooooooooooooooooooooooooooooooooooooooooooooXooooooooXooooooooooooooooooooooooooooooo",
"oooooooo oooooooXXoooooooooooooooooooooooooooooooooooooooooooooooooooooXoooooooooooXooooXoooXooooooXooooooooooooooooooooooooooooooooooooooooooooooo",
"ooXoooooooooooooXXoooooooooooooooooooooooooooooooooooo oooooooooooooooooooooooooooooooooooooooooooooooooooooooooooooooo.oooooooooooooooooooXoooXooo",
"oXoooooXooooooooXooooooooooooooooooooooooooooooooooooooooooooXooooooooooooooooooooo ooooooooooooooooooooooooooooooooooooooooooooooooooooooooXoooooo",
"ooooooooooooXoooooooooXooooooooooooooooooooXooooooooooooooooooooooooooooooooooooooooooooooooooooooooooooooooooooooooooooooooooooooooooooooooooooooo",
"ooooooooooooooooooooooooooooXooooooooooooooooooooooooooooooooooooooooooooooooooooooooooooooooo oooooooooooooooooooooooooooooooooooooooooooooooooooo",
"oooooooooXooooooooooooooooooooooooooXooooooooooooooooooooXoooooooooooooooXooXoooooooooooooooooooooooooooooooooooooooooooooooooooooXooXooooooooooooo",
"ooooooooooooooooooooooooXooooooooooooXooooooooooooooooooooooooooooooooXoooooooooooooooooooooooooooooooooooooooo oo oooooooooooooooooooooooooooooooX",
"ooooooooooooooooooooooooooooXooooXoooooooooooooooooXooooooooooooooooooooooXoooooooooooooooooooooooooooooooooooooooooooooooooooooooooooooooooooooooo",
"ooooooXooooooXooXoooooooooooooooooooooooooXooooooooooooooooooooooooooooooooooooooooooooooooooooooooooooooooooooooooooooooooXoooooooooooooooooXooooo",
"oXooooooooooooooooooooXoooooooooooooooooooooooooooooooXoooooooooXooooooooooooooooooooooooooooooooooo oooooooooooooooooooooooooooooooXoooooooooooooo",
"ooooXooooooooooooooooooooooooooooooooooooooooooooooooooooooooooooooooXoooooXooooooooooooooooooooooooooooooooooooooooooooooooooooooooooooooooooooooo",
"ooooooooooooXooooooooXooooooooooooooooooooooooooooooooooooooXooooooooooooooooooooooooooooooooooooooooooooooooooooooooooXoooooooooXoooooXooooooooooo",
"oooooooooooooooooooooooooooXoooooooooooXo oooooooooooooooooooooooooooooooooooooooooooooooooooooooooooooooooooooooXoooooooooXoooooooooooooooooooooXo",
"oooooooooooXooooooooooooooooXooooXooooooooooooooooooooooooooooooooooooooooooooooooooooooooooooooooooooooooooooooooooooooooooooooooooooooooooooooooo",
"ooooooXooooooooooXoooooXooooooooooooooooooooooooooooooooooooXooooooooooooooooooooooooooooooooooooooooooooooooooooooooooooooooXooooooooooooooooooooo",
"ooXooooooooooooooooooooooooooooooooooooooooooooooooooooooooXooooXoooooooooooooooooooooooooooooooooooooo ooooooooooooooooooooooooooooooooooooooooooo",
"ooooooooooooXooooooooooooooooooooooooXooooooooooooooooooooooooooooooooooooooooXooooooo oooooooooooooooooooooooooooooooooXoooooooooooooooooooooooooo",
"ooooooooooooooooooooooooooooooooooooooooooXooooooXoooooXoooooooooooooooXoooooooooooooooooooo oooooooooooooooooooooooooooooooooooXoooooXoooooooooooo",
"oooooooooooooooooXoooooXoooooooooooooooooooooooooooooooooooooooooooooooooooooooooooooooooooooooooooooooooooooooooooXooooooXoooooooooooooooooooooooo",
"ooooooooooooooooooooooooooooooooXoooooooooooooooooXooooooXooooooooooooooooooooooooooooo oooooooooooXooooooooXoooooooooooooooooooooooooooooooooooooo",
"ooooooXooooooooXooooooooooooooooooooXooooooooXooooooooooooooooooooooooooooooooooooooooooooooooooooooooooooooooooooooXooooooooooooooooooooXooooooooo",
"ooXoooooXoooooooooooooooooooooooooooooooooXoooooooooooooooooooooooXoooooooooooooooooooooooooooooooooooooooooooooooooooooooooooooooooooooooooXoooooX",
"ooXoooooooooooooooooooooooooooooooooooooooooooooooooooooooooooooXoooooooooooooooooooooooooooo oooooooXoooXooooooooooooooooooooooooooooooooooXoooooo",
"oooooooooooooooooXoooooXoXoooooooooooXoooooooooooooooooooooooooooooooXooo ooooooooooooooooooooooooooooooooooooooooXoooooooooooXooooooooXooooooooooo",
"oooooooooooooXooooooooooooooooooooooooooooooooooooooooooooooooooooooooooooooooooooooooooooooooooooooooooooooooXoooooooooooooooooooooooooooooooooooo",
"oooooooooooooooooooooooooooooXoooooooooooooXoooooooooooooXooooooooooooooooooooooooooooooooooooooooooooooooooooooooooooooXooooooooooooooooooooooooXo",
"ooooooooXoooooXooooooXooooooooooooXooooooooooooooooooooooooooooooooooooooXoooooooooooooooooooooooooooooooXooooooooooooooooooooooooooXoooooooooooooo",
"ooooOoooooooooooooooooooooooooooooooooooooooooooooooooooooooooooooooooooooooooooooooooooooooooooooooooooooooooooooooooooooooooXoooooooooooooooooooo",
"oXooXXooooooooooooooooooooooooooooooooXoXoooooXooooooooooXoooooooooooooooooooooooooooooooooooooooXooooooooooooooooooooooooooooooooooooooooooooooooo",
"ooooXXoooooooooooooooooooooooooooooooooooooooooooXoooooXooooooooooooooooooooooooooooooooo ooooooooooooXoooooooooooXooooooooooooooooooooooooXooooooo",
"oooooooooooooooooooooXoooooooooooooooooooooooooooooooooooooooooooooooooooooooooooooooooooooooooooooooooooooooooooooooooooooooooooooooooooXooooXoooo",
"oooooooXXoooooXoooXoooooooooooooooooooooooooooooooooooooooooooooXooooooooooooooooooooooooooooooooooooooooooooooooooooXooooooooooooXoooXoooooooooooX",
"oooooooooooooooooooooooooooooooooooooooooooooooooooooooooooooooooooooooXooo oooooooooooooooooooooooooooooooXoooooooXooooooooooooooooooooooooooooooo",
"oooooooooooooooooooooooooooooooooooXooooXoooooXooooooooooooooooooooooooooooooooooooooooooooooooooooooooooooooooooooooooooooXooooooooooooooooooooooo",
"oXooooXoooooooooooooooooooooooooooooooooooooooooooooooooooooooooooooooooooooooooooXoooooooooooooooooooooooooXoooooXoooooooooooooXoooooooooooooooooo",
"oooooooooXooooooooooooooXooooooXoXooooXooooooooooooooooooooooooooooXooooooooXoooooooooooooooooooooooooooooooooooooooooooooooooooooooooXoooooooooooo",
"oooooooooooooooXoooooooooooooooooooooooooooooooXooooooooooooooooooooooooooooooooooooooXooooooXoooooooooooooooooooooooooooooooooXooooooooooooooooooo",
"ooooooooooooooooXooooooooooooooooooooooooooooooooXoooooXooooooooooooooooXoooooooooooooooooooooooXoooooXoooooooooooooooooooooooooooooooooooooooooooo"
};
